# xmcd
#
# Track frame offsets: 
#        150
#        11385
#        23592
#        33545
#        43157
#        55935
#        69102
#        79665
#        89875
#        100110
#        110442
#        125232
#        137732
#        148262
#        159097
#        170872
#        182507
#        192945
#        209807
#
# Disc length: 2943 seconds
#
# Revision: 0
# Processed by: cddbd v1.5.2PL0 Copyright (c) Steve Scherf et al.
# Submitted via: ExactAudioCopyFreeDBPlugin 1.0
#
DISCID=100b7d13
DTITLE=Pat Boone - Pat Boone - Greatest Hits and Performances
DYEAR=1995
DGENRE=Easy Listening
TTITLE0=(Welcome) New Lovers
TTITLE1=Fool's Hall of Fame
TTITLE2=Big Cold Wind
TTITLE3=Gee, But It's Lonely
TTITLE4=Dear John
TTITLE5=Spring Rain
TTITLE6=No Other Arms (No Arms Can Ever Hold You)
TTITLE7=Twixt Twelve and Twenty
TTITLE8=Remember You're Mine
TTITLE9=For My Good Fortune
TTITLE10=Star Dust
TTITLE11=I'll See You In My Dreams
TTITLE12=I'm Waiting for You
TTITLE13=Walking the Floor Over You
TTITLE14=With The Wind and the Rain In Your Hair
TTITLE15=Beach Girl
TTITLE16=For a Penny
TTITLE17=Ten Lonely Guys
TTITLE18=Johnny Will
EXTD=
EXTT0=
EXTT1=
EXTT2=
EXTT3=
EXTT4=
EXTT5=
EXTT6=
EXTT7=
EXTT8=
EXTT9=
EXTT10=
EXTT11=
EXTT12=
EXTT13=
EXTT14=
EXTT15=
EXTT16=
EXTT17=
EXTT18=
PLAYORDER=
